<?xml version="1.0" encoding="utf-8"?>
<!-- Generator: Adobe Illustrator 24.0.0, SVG Export Plug-In . SVG Version: 6.00 Build 0)  -->
<svg version="1.1" xmlns="http://www.w3.org/2000/svg" xmlns:xlink="http://www.w3.org/1999/xlink" x="0px" y="0px"
	 viewBox="0 0 1000 800" style="enable-background:new 0 0 1000 800;" xml:space="preserve">
<style type="text/css">
	.st0{display:none;}
	.st1{display:inline;fill:#FFFFFF;}
	.st2{fill:#F1F2F2;}
	.st3{fill:#3B455A;}
	.st4{fill:#C5CCD3;}
	.st5{fill:#EFBFA5;}
	.st6{fill:#C4C9CE;}
	.st7{fill:#EBB044;}
	.st8{fill:#32376B;}
	.st9{fill:#474EBB;}
	.st10{fill:#D34E4E;}
	.st11{fill:#7FC5A3;}
	.st12{fill:#8EC3CB;}
	.st13{opacity:0.64;}
	.st14{fill:#FFFFFF;}
	.st15{fill:#7BB1B7;}
	.st16{opacity:0.51;}
	.st17{opacity:0.15;}
	.st18{fill:#080A0A;}
	.st19{opacity:0.06;}
	.st20{fill:#A4A6A9;}
	.st21{fill:#D8A38B;}
	.st22{fill:#343F51;}
	.st23{opacity:0.12;}
	.st24{fill:#000100;}
</style>
<g id="background" class="st0">
	<rect y="0" class="st1" width="1000" height="800"/>
</g>
<g id="shadow">
	<g>
		<path class="st2" d="M455.03,696.49c-26.68,0.06-53.36,0.54-79.99,2.74c-10.04,0.83-19.87,2.66-29.94,3.4
			c-20.1,1.47-39.85,4.22-60.02,5.49c-16.25,1.02-32.56,1.62-48.76,2.92c-15.19,1.21-32,0.93-47.07-1.07
			c-11.16-1.48-22.37-2.32-33.34-4.71c-12.27-2.67-25.6-4.58-38.39-4.51c-18.23,0.1-35.99,0.11-53.44,4.82
			c-6.12,1.65-13.62,4.37-18.27,7.84c-10.65,7.95-12.09,27.77-1.46,36.01c17.91,13.87,56.12,19.31,81.22,19.57
			c27.5,0.28,54.22-1.24,81.76-2.13c25.59-0.83,51.12-2.01,76.76-1.97c52.36,0.08,104.72,0,156.99-2.6
			c49.1-2.45,98.33-1.61,147.54-1.61c50.46,0,100.59,0.3,150.69,5.29c21.83,2.17,44.07,2.94,66.01,4.46
			c19.65,1.36,38.53-0.03,58.1-1.29c16.43-1.06,32.76-4.2,47.69-9.51c11.82-4.2,32.88-17.26,36.51-27.29
			c10.16-28.12-143.18-27.45-166.72-27.38c-26.34,0.07-52.88,0.72-79.2-0.03c-11.07-0.31-21.98-1.92-32.78-3.69
			c-10.76-1.76-21.6-1.31-32.52-2.05c-45.51-3.08-91.12-2.63-136.78-2.63C484.76,696.56,469.9,696.46,455.03,696.49z"/>
	</g>
</g>
<g id="object">
	<g>
		<path class="st3" d="M191.81,559.1c-1.02-1.49-2.2-2.97-3.84-3.67c-1.02-0.44-2.15-0.53-3.26-0.59c-5.47-0.3-10.44,1.01-15.8,1.39
			c-4.22,0.3-7.11-0.24-9.56,4.2c-1.33,2.41-1.79,5.18-2.22,7.9c-5.02,31.44-9.13,63.02-13.24,94.59
			c-0.98,7.54-1.96,15.08-2.94,22.62c-0.38,2.95-0.77,5.91-1.15,8.86c-1.7,13.1-3.41,26.19-5.11,39.29
			c-0.31,2.39-1.46,4.39-2.25,6.56l-0.05,0l-14.05,10.03l-2.56,4.58l6.13,2.96l14.2-2.63l9.8-6.65l0.14-5.96
			c0.02-2.19,0.24-4.27,0.74-6.41c0.98-4.18,2.52-8.25,3.88-12.31c2.04-6.94,4.16-13.85,6.22-20.78
			c4.49-15.11,8.88-30.25,13.23-45.4c4.47-15.59,9.49-31.03,14.13-46.56C188.48,596.97,200.91,572.45,191.81,559.1z"/>
	</g>
	<g>
		<path class="st3" d="M245.34,568.36c2.96,0.67,5.77,2,7.96,4.08c7,6.61,2.69,16.48,1.48,24.58c-1.56,10.43-2.39,20.95-2.67,31.49
			c-0.56,20.73-1.39,41.45-2.51,62.16c-0.89,16.56-6.3,37.93-2.18,54.07l5.93,10.28l-2.66,3.27l-9.92-0.85
			c-1.33-0.11-5.81-7.89-6.18-9.42c-1.32-5.44,0.03-10.86-0.71-16.26c-0.59-4.37-2.27-8.85-3.07-13.33
			c-1.25-7.02-2.46-14.04-3.63-21.07c-2.28-13.79-4.35-27.62-6.11-41.49c-2.23-17.65-4.47-35.3-6.7-52.94
			c-0.96-7.56-2.85-13.12,1.74-19.52c4.18-5.83,9.73-11.63,16.57-14.18c3.38-1.26,7.07-1.68,10.66-1.23
			C244.02,568.09,244.68,568.21,245.34,568.36z"/>
	</g>
	<g>
		<path class="st4" d="M258.93,603.68c-5.16,0.08-10.32,0.03-15.46-0.42c-11.56-1.01-22.85-3.52-34.53-3.49
			c-1.24-6.44-3.22-13.16-3.79-19.65c-0.64-7.3,0.78-14.95,1.09-22.26c0.75-17.31,1.99-34.6,3.71-51.84
			c15.39-0.6,30.67,1.11,45.99,1.04c3.89-0.02,9.24-1.07,11.06,2.5c2.63,5.17,1.52,12.1,2.19,17.7c1.01,8.55,1.8,17.09,2.03,25.7
			c0.44,16.91-0.85,33.86-3.88,50.5C264.54,603.55,261.73,603.63,258.93,603.68z"/>
	</g>
	<g>
		<path class="st4" d="M152.15,600.1c-3.57-0.36-7.12-0.79-10.68-1.28c-1.24-0.17-2.55-0.38-3.48-1.21
			c-1.73-1.53-1.36-4.28-0.84-6.53c5-21.55,9.89-43.14,14.99-64.67c0.81-3.43,8.71-38.13,10.73-38.15
			c14.37,0.15,28.74,0.3,43.1,0.45c1.3,0.01,2.72,0.07,3.72,0.9c0.99,0.83,1.3,2.2,1.54,3.46c3.61,19.11,6.09,38.74,7.43,58.12
			c1.15,16.54-8.02,31.73-16.14,45.74c-0.82,1.42-1.73,2.9-3.16,3.71c-1.29,0.73-2.83,0.81-4.31,0.86
			C180.75,602.03,166.4,601.56,152.15,600.1z"/>
	</g>
	<g>
		<g>
			<g>
				<path class="st5" d="M395.48,319.68c-0.13-0.77-0.23-1.55-0.32-2.32c-1.82-15.33-0.51-29.6,0.19-44.76
					c0.57-12.23,2.16-26.4,11.8-35.12c1.48-1.34,8.7-7.44,1.97-8.03c-1.64-0.14-3.24,1.3-3.28,2.94c2.33-3.97,4.03-8.31,5.03-12.8
					c0.15-0.67,0.28-1.39,0-2.01c-0.22-0.49-0.65-0.85-1.07-1.18c-1.61-1.28-3.22-2.57-4.83-3.85c-0.22-0.18-0.47-0.36-0.75-0.37
					c-0.34-0.01-0.63,0.22-0.88,0.44c-2.87,2.49-5.74,4.97-8.61,7.46c-4.86,4.21-3.06,11.03-3.98,16.58
					c-1.03,6.2-3.36,8.96-6.1,14.17c-7.73,14.67-12.29,31.2-15.83,47.39c-1.45,6.62-2.65,13.42-1.82,20.14
					c0.93,7.51,4.33,14.47,8.14,21.01c4.8,8.8,10.76,17.33,17.41,24.82c3.6,4.06,7.52,7.71,11.83,10.99
					c4.26,3.24,5.74,6.36,8.37,11.14c0.34,0.61,0.69,1.25,1.28,1.63c1.66,1.09,3.75-0.44,5.1-1.89c8-8.52,15.3-17.7,21.79-27.41
					c0.97-1.46,1.95-2.98,2.28-4.7c0.66-3.5-1.58-7.01-4.52-9.02s-6.5-2.84-9.92-3.82c-9.04-2.59-17.74-6.39-25.77-11.28
					c-2.12-1.29-4.25-2.71-5.61-4.78C396.31,323.46,395.8,321.59,395.48,319.68z"/>
			</g>
		</g>
		<g>
			<g>
				<path class="st5" d="M532.97,332.92c10.54-5.73,9.94-17.91,12.39-32.64c2.47-14.86,6.79-35.11-3.16-48.26
					c-1.2-1.59-7.16-8.93-0.44-8.25c1.64,0.17,2.95,1.88,2.67,3.5c-1.54-4.34-2.41-8.91-2.56-13.52c-0.02-0.68-0.01-1.41,0.37-1.98
					c0.3-0.44,0.8-0.71,1.27-0.96c1.82-0.96,3.64-1.92,5.46-2.88c0.25-0.13,0.53-0.27,0.81-0.23c0.33,0.05,0.57,0.33,0.78,0.6
					c2.36,2.98,4.71,5.95,7.07,8.94c3.99,5.04,0.95,11.41,0.82,17.03c-0.14,6.29,1.63,9.43,3.35,15.06
					c4.86,15.85,6.26,32.94,6.72,49.51c0.19,6.77,0.1,13.68-1.97,20.13c-2.31,7.2-6.95,13.41-11.91,19.12
					c-10.61,12.22-25.57,27.04-41.42,32.13c-28.47,9.14-28.31-48.22-2.29-53.23c3.15-0.61,6.4-0.52,9.6-0.8
					C525.88,335.71,529.9,334.59,532.97,332.92z"/>
			</g>
		</g>
		<g>
			<g>
				<g id="XMLID_23_">
					<g id="XMLID_24_">
						<path class="st5" d="M494.2,623.88l-1.88,41.77c-0.99,11.56-0.66,23.16-0.67,34.75c-0.01,10.76-2.85,21.67,1.63,31.92
							c1.4,3.21,4.66,5.59,7.47,2.15c2.16-2.65,1.54-7.5,2.23-10.69c5.18-23.96,13.51-47.12,18.43-71.15
							C526.56,627.46,516.7,627.53,494.2,623.88z"/>
					</g>
				</g>
				<g>
					<polygon class="st3" points="490.36,724.97 487.25,731.77 499.73,744.2 511.79,745.44 516.1,739.3 500.7,724.16 					"/>
				</g>
			</g>
			<g>
				<g id="XMLID_21_">
					<g id="XMLID_22_">
						<path class="st5" d="M423.89,622.1l4.37,41.58c1.19,18.54,5.77,36.87,6.96,55.41c0.27,4.26-0.4,8.85,1.05,12.97
							c1.42,4.03,4.78,4.45,7.96,2.04c4.27-3.22,2.92-9.68,3.23-14.52c2.05-32.21,7.08-63.73,10.23-95.91
							c0.04-0.42,0.06-0.91-0.24-1.2c-0.25-0.24-0.63-0.26-0.97-0.27C453.34,622.16,423.98,623,423.89,622.1z"/>
					</g>
				</g>
				<g>
					<polygon class="st3" points="447,726.68 450.7,733.18 439.35,746.66 427.44,748.95 422.62,743.21 436.63,726.78 					"/>
				</g>
			</g>
		</g>
		<g>
			<path class="st6" d="M530,651.27l8.61-58.9c-2.4-33.82-17.11-68.03-19.45-101.97c-0.15-2.16-0.4-4.55-1.97-6.04
				c-1.22-1.15-2.97-1.51-4.63-1.78c-15.75-2.62-31.8-2.61-47.77-2.6c-15.56,0.02-46.13-3.3-53.92,12.01
				c-8.01,15.75-5.66,51.14-6.29,68.97c-0.98,27.88-1.21,60.17,1.76,87.92l60.43-1l5.08-65.7l9.18,42.83l-0.39,26.27H530z"/>
		</g>
		<g>
			<path class="st7" d="M508.98,349.65c-0.83-2.28-1.97-4.62-3.52-7.11c-6.63-10.63-27.26-17.98-39.7-16.32
				c-10.74,1.43-21.3,1.6-31.41,6.05c-7.59,3.34-14.47,14.2-18.38,20.97c-13.41,23.27-7.97,51.74-7.94,77.41
				c0.01,13.53-1.3,27.13-1.85,40.64c-0.36,8.83-0.69,17.67-0.74,26.5c-0.02,3.14-1.54,13.07,0.79,15.7
				c2.04,2.31,15.03-0.08,18.94-0.2c9.57-0.3,19.15-0.44,28.73-0.42c11.35,0.02,22.7,0.27,34.04,0.74
				c11.65,0.49,22.37,2.88,34.04,0.24c1.51-0.34,3.1-0.82,4.09-2c1.33-1.58,1.17-3.87,0.94-5.91c-2.46-21.46-5.49-42.85-9.09-64.15
				c-1.67-9.87-5.1-20.55-5.2-30.55c-0.08-8.44,0.06-16.86-0.52-25.41C511.46,374.52,512.89,360.39,508.98,349.65z"/>
		</g>
		<g>
			<g>
				<g>
					<path class="st8" d="M487.7,268.39c2.61,4.58,3.87,9.85,4.1,15.11c0.06,1.4,0.16,3.02,1.29,3.84c1.21,0.88,0.15,2.83,1.07,1.64
						c0.92-1.18,4.05-5.29,4.19-6.79c0.33-3.5,0.32-7.03-0.02-10.53c-0.3-3.04-0.92-6.22-2.91-8.54c-1.18-1.38-2.76-2.34-4.31-3.28
						c-2.25-1.36-4.57-2.73-7.15-3.21c-4.45-0.83-7.19,0.77-3.26,3.87C483.53,262.74,485.91,265.26,487.7,268.39z"/>
				</g>
				<g>
					<g>
						<path class="st5" d="M459.88,328.12c0.03,2.15-0.41,4.39,1.49,6.06c0.91,0.8,2.15,1.13,3.35,1.32
							c3.11,0.49,6.32,0.26,9.33-0.66c1.24-0.38,2.47-0.9,3.4-1.79c1.1-1.06,1.16-2.06,1.21-3.45c0.06-1.62,0.39-3.28,0.6-4.92
							c0.46-3.6,0.67-7.23,0.78-10.86c5.34-0.92,11.61-2.64,13.44-8.23c0.57-1.76,0.59-3.68,0.61-5.55
							c0.06-7.74,0.11-15.49,0.17-23.23c0.02-2.68,0.03-5.44-0.89-7.92c-1.61-4.36-5.7-6.96-9.71-8.6
							c-10.23-4.17-22.16-4.01-31.61,1.93c-2.51,1.58-4.89,3.61-6.33,6.37c-2.23,4.25-1.95,9.51-1.6,14.41
							c0.32,4.53,0.64,9.06,0.96,13.59c0.37,5.21,1.15,11.21,5.2,13.96c2.15,1.46,4.93,1.73,6.78,3.62
							c3.23,3.3,1.69,8.23,2.65,12.23C459.83,326.95,459.87,327.53,459.88,328.12z"/>
					</g>
				</g>
				<g>
					<path class="st3" d="M495.97,296.93c-0.09-1.44-0.71-5.64-2.87-3c-0.56,0.69-0.7,1.67-0.74,2.59
						c-0.03,0.92,0.01,1.87-0.28,2.74c-0.67,1.99-2.87,2.9-4.83,2.86c-0.78-0.01-1.58-0.14-2.27-0.53c-0.67-0.38-1.2-0.99-1.72-1.58
						c-1.26-1.44-2.52-2.89-3.78-4.33c-2.16-2.48-6.46-1.41-9.37-1.03c-3.36,0.44-6.72,1.45-9.47,3.66
						c-0.28,0.22-0.55,0.46-0.82,0.69c-0.66,0.57-1.33,1.14-2.1,1.51c-2.6,1.26-5.81-0.05-7.63-2.42c-0.83-1.08-1.61-2.48-2.91-2.66
						c-1.01-0.14-2,0.58-2.52,1.53c-0.52,0.95-0.66,2.08-0.73,3.18c-0.26,4,0.3,8.12,2.03,11.67c3.76,7.69,11.03,8.64,18.33,8.47
						c2.89-0.07,5.78-0.14,8.66-0.2c5.28-0.12,10.86-0.34,15.31-3.41c3.92-2.71,6.25-7.31,7.21-12.13
						C495.97,302.04,496.12,299.47,495.97,296.93z M476.65,307.84c-2.78,1.87-5.84,1.97-8.94,1.04c-1.32-0.4-0.76-2.61,0.56-2.21
						c2.57,0.77,4.99,0.75,7.31-0.8C476.74,305.08,477.81,307.06,476.65,307.84z"/>
				</g>
				<g>
					<path class="st3" d="M497.07,254.97c0.51-1.88,0.89-3.79,1.13-5.72c-1.79,0.63-3.73,0.79-5.6,0.48c0-1.11-0.01-2.23-0.01-3.34
						c-0.01-0.93-12.54-1.57-13.56-1.66c-9.53-0.78-18.25-1.53-26.87,3.59c-7.36,4.37-12.08,10.89-13.21,19.39
						c-1.08,8.11,1.58,18.71,6.27,25.44c-0.03-2.16-1.27-7.26-0.76-9.31c0.31-2.06,1.02-4.04,2-5.87c1.96-3.66,4.99-6.73,8.49-8.93
						c5.59-3.5,12.08-5.35,18.57-6.26c5.94-0.83,13.19-1.59,19.06-0.02c2.82,0.76,3.29,1.46,5-1.38c0.3-0.5,2.69-6.37,2.46-6.37
						C499.05,255,498.06,254.99,497.07,254.97z"/>
				</g>
			</g>
		</g>
		<g>
			<path class="st7" d="M525.33,326.12c1.64-0.43,3.38-0.9,5.01-0.44c1.9,0.53,3.24,2.19,4.41,3.78
				c7.76,10.63,13.54,22.7,16.96,35.41c0.47,1.74,0.88,3.65,0.17,5.31c-0.57,1.32-1.75,2.25-2.87,3.16
				c-16.29,13.27-26.44,32.98-43.04,45.86c-3.17-16.47-5.4-33.12-6.67-49.85c-0.53-6.97-0.92-14.07-3.25-20.66
				c-2.37-6.68-14.97-14.78-8.38-19.5c2.43-1.74,14.81,0.38,18.11,0.14C512.38,328.87,518.93,327.79,525.33,326.12z"/>
		</g>
		<g>
			<path class="st7" d="M448.24,331.1c-0.24-0.74-0.57-1.48-1.11-2.04c-1.15-1.21-2.98-1.42-4.65-1.57
				c-7.08-0.67-14.1-1.82-21.02-3.44c-4.05-0.95-9.71-3.8-14.67-5.33c-0.28-0.35-0.57-0.69-0.85-1.05c-0.34-0.44-0.67-0.87-1-1.32
				c-1.64-2.21-3.97-0.56-6.16,1.86c-3.7,1.48-5.75,6-8.21,9.01c-4.04,4.96-9.89,8.82-14.64,13.09c-0.97,0.86-2.01,1.86-2.11,3.15
				c-0.08,1.07,0.51,2.06,1.07,2.97c13.32,21.39,26.64,42.79,39.95,64.18c-0.53-0.85,14.56-25.03,15.84-27.96
				c3.21-7.37,4.56-15.9,7.97-23.04c0.71-1.48,7.7-10.14,6.44-13.7c0.55-0.88,1.08-1.77,1.54-2.7
				C448.53,339.49,449.54,335.08,448.24,331.1z"/>
		</g>
	</g>
	<g>
		<g>
			<g>
				<g>
					<g>
						<path class="st9" d="M362.11,157.32l50.16,6.25c1.77-2.5,4.73-3.97,7.87-3.58l132.38,16.5c3.14,0.39,5.65,2.54,6.75,5.4
							l50.16,6.25l-6.63,53.19l-49.61-6.18c-1.6,3.2-4.96,5.2-8.57,4.75l-132.38-16.5c-3.6-0.45-6.37-3.22-7.14-6.71l-49.61-6.18
							L362.11,157.32z"/>
					</g>
				</g>
				<g>
					<g>
						<path class="st9" d="M700.31,201.27l-4.92-2.26c-0.76-0.35-1.53-0.51-2.3-0.54l5.3-42.52c1.6-12.85-7.59-24.57-20.53-26.18
							l-2.92-0.36c-12-1.5-23.01,6.24-25.82,17.62c0.07-11.72-8.7-21.92-20.71-23.42l-2.92-0.36c-12.94-1.61-24.73,7.49-26.33,20.34
							l-17.4,139.69c-1.6,12.85,7.59,24.57,20.53,26.18l2.92,0.36c12,1.5,23.01-6.23,25.82-17.62c-0.07,11.72,8.7,21.92,20.71,23.42
							l2.92,0.36c12.94,1.61,24.73-7.49,26.33-20.34l5.3-42.52c0.75,0.16,1.54,0.19,2.36,0.04l5.33-0.98
							c3.87-0.72,7.09-4.99,7.75-10.31l3.58-28.71C705.96,207.85,703.89,202.91,700.31,201.27z"/>
					</g>
					<g>
						<path class="st9" d="M369.29,91.3l-2.92-0.36c-12-1.5-23.01,6.24-25.82,17.62c0.07-11.72-8.7-21.92-20.71-23.42l-2.92-0.36
							c-12.94-1.61-24.73,7.49-26.33,20.34l-5.3,42.52c-0.75-0.16-1.54-0.19-2.36-0.04l-5.33,0.98c-3.88,0.72-7.09,4.99-7.76,10.31
							l-3.58,28.71c-0.66,5.31,1.41,10.25,4.99,11.89l4.92,2.26c0.76,0.35,1.53,0.51,2.3,0.54l-5.3,42.52
							c-1.6,12.85,7.59,24.57,20.53,26.18l2.92,0.36c12,1.5,23.01-6.23,25.82-17.62c-0.07,11.72,8.7,21.92,20.71,23.42l2.92,0.36
							c12.94,1.61,24.73-7.49,26.33-20.34l17.4-139.69C391.43,104.64,382.23,92.91,369.29,91.3z"/>
					</g>
				</g>
			</g>
		</g>
	</g>
	<g>
		<g>
			<path class="st9" d="M267.71,363.09c3.17,6.88,3.75,14.5,4.8,22.79c1.81,14.37,2.71,28.83,2.91,43.28
				c0.24,16.8-0.47,33.59-1.8,50.32c-0.66,8.37-1.48,16.72-2.42,25.07c-0.48,4.32,1.42,15.42-3.25,17.69
				c-2.6,1.26-5.74,0.99-8.68,0.68c-17.74-1.86-35.49-3.73-53.23-5.59c-14.93-1.57-30.69-2.58-44.94-7.57
				c-0.76-0.27-1.54-0.57-2.08-1.18c-0.58-0.66-0.77-1.56-0.92-2.42c-2.39-13.34,1.04-23.8,3.33-36.5
				c2.7-14.98,3.07-31.36,4.17-46.57c1.26-17.42,4.05-40.78,10.66-57.34c2.97-6.99,7.16-13.49,12.88-18.83
				c6.81-6.36,16.01-11.8,25.4-11.8c8.84,0,17.95,0.86,25.79,4.94c7.2,3.74,13.27,6.98,19.49,12.49
				C263.52,355.84,265.99,359.36,267.71,363.09z"/>
		</g>
	</g>
	<g>
		<g>
			<g>
				<path class="st3" d="M260.5,315.59c-4.37,4.37-9.32,8.15-14.68,11.22c5-9.62,8.67-19.92,10.87-30.53
					c0.17-0.81,0.39-1.71,1.09-2.15c0.66-0.41,1.5-0.26,2.25-0.07C273.4,297.46,268.12,307.97,260.5,315.59z"/>
			</g>
		</g>
		<g>
			<path class="st5" d="M221.92,328.98c-0.8-0.92-1.5-1.9-2.09-2.87c-8.07-13.45-7.7-63.92,28.37-57.28
				c32.76,6.03,11.63,44.69-2.15,58.34c-2.61,2.59-5.91,5.2-9.8,6.33c-1.04,0.3-0.73,10.45-1.65,11.97
				c-1.85,3.06-6.21,3.96-9.34,2.54c-2.7-1.23-5.33-4.97-5.93-7.81C218.91,338.14,222.68,329.85,221.92,328.98z"/>
		</g>
		<g>
			<g>
				<g>
					<path class="st3" d="M221.53,314.41c-3.29,1.76-7.17-1.09-9.4-4.08c-9.19-12.27-9.01-30.71,0.41-42.8
						c7.88-10.12,26.28-11.49,22.2,3.88c-1.45,5.45-7.87,10.8-9.92,16.63C221.9,296.37,221.81,305.69,221.53,314.41z"/>
				</g>
			</g>
			<g>
				<g>
					<path class="st3" d="M283.94,269.48c9.96,15.24,7.19,35.73,14.97,52.19c-14.38-0.81-28.32-7.75-37.64-18.73
						c-9.14-10.77-35.16-28.12-23.06-42.29C250.52,246.23,275.21,256.13,283.94,269.48z"/>
				</g>
			</g>
		</g>
	</g>
	<g>
		<g>
			<g>
				<path class="st10" d="M328.37,390.65c-12.37-12.64-27.66-12.89-38.9-10.57c-8.13,1.68-16.6-0.05-23.52-4.65
					c-9.62-6.39-24.18-12.04-40.59-4.63c-22,9.93-30.35,33.42-30.57,56.2c-0.16,16.86,2.34,34.79,9.28,50.41
					c6.71,15.12,21.66,32.62,40.14,30.09c5.64-0.77,11.39,0.28,16.24,3.26c23.21,14.25,46.95-10.53,59.26-27.83
					c12.86-18.07,23.91-41.16,21.68-63.94C340.35,408.29,335.9,398.33,328.37,390.65z"/>
			</g>
			<g>
				<path class="st11" d="M273.65,359.89c3.47-5.8,9.21-10.3,14.83-12.81c5.62-2.52,11.18-3.28,16.5-3.61
					c4.72-0.29,9.35-0.26,13.84,0.09c-1.75,3.91-4.18,7.67-6.67,11.35c-3.59,5.31-7.4,10.59-11.95,15.11
					c-4.54,4.52-9.92,8.27-15.15,9.61C274.28,382.4,266.34,372.09,273.65,359.89z"/>
			</g>
		</g>
	</g>
	<g>
		<g>
			<g>
				<path class="st5" d="M120.65,263.57c-0.37-3.07-0.3-6.11-0.31-9.33c0-0.76,0-1.54,0.24-2.26c0.29-0.87,0.9-1.59,1.5-2.29
					c0.87-1.01,1.73-2.02,2.6-3.04c0.54-0.63,1.09-1.27,1.79-1.72c1.81-1.15,4.15-0.77,6.25-0.36c0.43,0.09,0.88,0.18,1.21,0.46
					c0.56,0.47,0.65,1.33,0.39,2.02c-0.81,2.17-1.48,2.7-1.48,5.32c0,2.23,0.06,4.49,0.64,6.66c0.91-0.33,1.45-1.24,2.1-2.06
					c0.55-0.68,1.27-1.44,2.14-1.32c1.16,0.16,1.51,1.69,1.3,2.84c-0.42,2.31-1.92,4.25-2.93,6.36c-1.5,3.15-1.82,9.31-5.56,10
					c-2.27,0.42-5.1-0.14-7.42-0.21c-0.62-2.53-1.23-5.06-1.85-7.58C120.99,265.9,120.79,264.73,120.65,263.57z"/>
			</g>
		</g>
		<g>
			<g>
				<path class="st9" d="M216.29,336.75c-21.79-1.13-43.55-2.68-65.27-4.65c-1.57-0.14-3.26-0.34-4.4-1.42
					c-1.12-1.05-1.43-2.69-1.68-4.2c-2.74-16.81-4.75-33.74-6.03-50.73c-0.11-1.48-0.34-3.17-1.58-3.98
					c-0.83-0.54-1.89-0.52-2.87-0.47c-4.6,0.19-10.18-0.87-13.58,3.1c-3.27,3.81-1.79,10.53-1.89,15.32
					c-0.3,14.18-1.18,28.36-2.64,42.47c-0.47,4.52-1.34,11.23,1.61,15.17c2.6,3.46,8.3,5.74,11.98,8.15
					c14.74,9.67,29.49,19.34,44.23,29c3.11,2.04,6.45,4.15,10.17,4.18c5.96,0.05,5.98-4.11,7.64-8.05
					c2.06-4.89,5.94-8.73,9.01-13.14C207.53,358.06,212.72,347.67,216.29,336.75z"/>
			</g>
		</g>
	</g>
	<g>
		<g>
			<path class="st9" d="M307.16,515.03c-2.64,0.05-5.5-1.04-6.67-3.4c-0.88-1.78-0.65-3.89-0.27-5.84c0.63-3.21,1.63-6.36,2.97-9.35
				c3.34-7.5,13.9-10.04,16.95-0.83C322.84,503.8,315.83,514.86,307.16,515.03z"/>
		</g>
		<g>
			<path class="st5" d="M290.46,502.63c-1.22-1.75-2.4-4.11-1.6-6.38c0.79-2.25,3.21-4.59,5.12-5.91c2.04-1.4,3.74,0.46,4.78,2.07
				c0.97,1.5,2,3.01,3.58,3.87c1.36-1.95-0.28-3.95,0.89-5.92c0.49-0.84,1.27-1.48,2.07-2c0.27-0.18,0.61-0.35,0.87-0.23
				c0.18,0.08,0.27,0.28,0.36,0.46c1.98,4.24,5.87,6.38,6.88,11.34c1.08,5.28-2.03,9.37-7.39,10.18
				c-5.79,0.87-11.79-2.52-15.02-6.72C290.83,503.14,290.65,502.89,290.46,502.63z"/>
		</g>
	</g>
	<g>
		<g>
			<g>
				<g>
					<g>
						<g>
							<path class="st12" d="M85.72,124.8l13.7,127.71c0.42,3.92,18.59,7.07,40.6,7.1c22,0.04,40.19-3.05,40.62-6.97l14.15-127.66
								L85.72,124.8z"/>
						</g>
						<g class="st13">
							<path class="st14" d="M185.13,149.46c0.15-0.11,0.22-0.21,0.22-0.32c0-1.78-20.15-3.25-45.01-3.29
								c-24.86-0.04-45.02,1.36-45.02,3.14c0,0.11,0.08,0.22,0.22,0.32l-0.36,0l11.35,100.04c0.35,3.07,15.39,5.54,33.61,5.57
								c18.22,0.03,33.27-2.38,33.63-5.45l11.7-100L185.13,149.46z"/>
						</g>
						<g>
							<path class="st15" d="M194.63,124.58c0,2.27-24.35,4.07-54.38,4.01c-30.03-0.05-54.37-1.93-54.36-4.2
								c0-2.27,24.35-4.07,54.38-4.01C170.29,120.43,194.63,122.31,194.63,124.58z"/>
						</g>
						<g class="st16">
							
								<ellipse transform="matrix(1.711633e-03 -1 1 1.711633e-03 -8.8228 288.7551)" class="st14" cx="140.21" cy="148.8" rx="2.91" ry="45.28"/>
						</g>
					</g>
				</g>
			</g>
			<g>
				<g>
					<path class="st14" d="M133.49,196.37c0.23-3.53,0.38-7.07,0.46-10.61c0.04-1.97-3.04-2.07-3.08-0.09
						c-0.07,3.23-0.2,6.46-0.4,9.69l-7.63-0.23c0.04-2.3,0.08-4.6,0.12-6.89c0.03-1.97-3.05-2.07-3.08-0.09
						c-0.1,5.96-0.21,11.91-0.31,17.87c-0.03,1.97,3.05,2.07,3.08,0.09c0.05-2.64,0.09-5.27,0.14-7.91l7.48,0.22
						c-0.23,3.15-0.52,6.3-0.87,9.44c-0.22,1.96,2.86,2.04,3.08,0.09c0.38-3.41,0.69-6.83,0.93-10.25
						C133.61,197.29,133.64,196.8,133.49,196.37z"/>
				</g>
				<g>
					<path class="st14" d="M140.68,218.95c-0.25-0.02-2.24-0.17-2.99-0.25c0.41-0.26,1.13-1.1,1.12-1.09
						c0.29-0.31,0.59-0.6,0.87-0.91c1.17-1.32,2.04-2.96,1.56-4.76c-0.87-3.21-5.41-3.36-6.2-0.02c-0.45,1.91,2.5,2.82,2.95,0.9
						c0.54,0,0.57,0.31,0.08,0.94c-0.25,0.43-0.57,0.82-0.93,1.17c-0.43,0.46-0.89,0.9-1.29,1.38c-0.73,0.89-1.46,2-1.3,3.21
						c0.36,2.7,4.07,2.31,6.03,2.49C142.56,222.19,142.65,219.13,140.68,218.95z"/>
				</g>
				<g>
					<path class="st14" d="M154.17,187.82c-0.07-0.68-0.54-1.29-1.43-1.29c-5.17,0-7.71,7.64-7.79,11.8
						c-0.1,4.65,2.24,10.31,7.69,10.32c5.35,0.01,8.56-5.01,8.96-9.83C161.94,194.64,158.75,188.53,154.17,187.82z M158.44,199.4
						c-0.47,3.04-2.68,6.59-6.26,6.17c-3.51-0.42-4.31-4.89-4.13-7.73c0.09-1.41,0.44-2.82,1-4.12c0.43-0.99,1.37-2.95,2.55-3.76
						c0.31,0.53,0.88,0.92,1.64,0.81c1.66-0.22,3.61,2.42,4.35,3.62C158.52,195.92,158.7,197.67,158.44,199.4z"/>
				</g>
			</g>
		</g>
	</g>
	<g>
		<g>
			<g>
				<g>
					<path class="st12" d="M835.74,131.75c-2.57-2.72-9.3-3.59-9.3-3.59l-30.49-0.71c-3.23-0.08-6.49-1.31-9.22-3.43
						c0.95-0.98,0.98-2.53,0.04-3.52c-0.97-1.02-2.58-1.06-3.61-0.09l-0.08,0.07l-3.07-3.24l-19.3,18.29l3.07,3.24l-0.69,0.65
						c-1.02,0.97-1.07,2.59-0.11,3.6c0.97,1.02,2.58,1.06,3.6,0.09l0.56-0.53c2.15,3,3.26,6.55,3.06,9.97l-1.73,30.53
						c0,0,0.51,6.76,3.09,9.48l13.18,13.9c0,0,26.09,0.69,26.03,27.18l78.65,83.28c0,0,44.68-8.36,64.16-60.81l-78.94-83
						c-25.47-1.21-25.74-27.45-25.74-27.45L835.74,131.75z"/>
				</g>
				<g>
					<path class="st7" d="M915.2,215.6l-39.77-41.96l-14.26,15.87c-11.72,12.13-20.96,20.52-34.17,32.38l-15.74,12.55l39.77,41.96
						l-0.2,0.19c44.07-19.79,64.57-61.19,64.57-61.19L915.2,215.6z"/>
				</g>
				<g>
					<polygon class="st14" points="849.95,213.76 861.52,202.8 861.05,222.71 875.03,217.05 872.04,248.88 865.59,230.26 
						855.13,236.88 					"/>
				</g>
				<g>
					<path class="st3" d="M783.91,118.05l-23.2,21.99c-0.75,0.71-1.92,0.67-2.63-0.07l-11.61-12.25c-0.71-0.75-0.67-1.92,0.07-2.63
						l23.2-21.99c0.75-0.71,1.92-0.67,2.63,0.07l11.61,12.25C784.68,116.17,784.65,117.35,783.91,118.05z"/>
				</g>
				<g class="st17">
					<path class="st18" d="M767.34,142.83l19.32-18.72c0,0,1.32,0.9,2.37,1.43L767.34,142.83z"/>
				</g>
				<g class="st19">
					<g>
						<path class="st18" d="M849.28,146.04l-0.18-0.19l-64.16,60.81l0.18,0.19c0,0,26.09,0.69,26.03,27.18l0.27,0.29l29.57-25.45
							c1.89-1.63,3.71-3.35,5.44-5.14l28.85-29.94l-0.27-0.28C849.54,172.29,849.28,146.04,849.28,146.04z"/>
					</g>
				</g>
			</g>
			<g>
				<polygon class="st20" points="915.41,215.42 915.4,215.4 915.4,215.39 				"/>
			</g>
		</g>
	</g>
	<g>
		<g>
			<g>
				<path class="st21" d="M744.63,479.91c-0.15-1.16-0.11-1.27-1.1-1.91c-1.1-0.71-2.3-1.3-3.45-1.91
					c-4.29-4.6-6.15-9.26-7.74-15.46c-1.12-4.35-3.29-8.62-4.9-12.81c-3.21-8.37-6.35-16.77-9.42-25.2
					c-0.47-1.29-0.94-2.67-0.65-4.01c0.22-1.02,0.86-1.88,1.49-2.69c3.01-3.87,6.25-7.53,9.71-10.97c3.09-3.07,5.76-4.67,9.37-6.66
					c3.82-2.11,2.41-6.23,1.01-9.77c-0.56-1.43-6.47-13.79-5.86-14.41c-11.82,11.95-23.58,23.97-35.27,36.06
					c-0.76,0.79-1.56,1.63-1.85,2.71c-0.38,1.39,0.14,2.87,0.67,4.22c4.43,11.33,9.58,22.34,15.34,32.99
					c2.87,5.31,5.89,10.54,9.05,15.66c1.84,2.99,8.07,9.07,6.7,12.95c-0.15,0.44-0.4,0.84-0.5,1.3c-0.11,0.52-0.01,1.09,0.11,1.64
					c0.42,2.01,1,4.05,1.84,5.95c0.77,1.73,2.13,1.94,3.66,2.63c1.6,0.72,2.63,2.28,4.14,3.13c1.52,0.86,2.84,0.26,4.24-0.68
					c0.65-0.43,1.28-0.89,1.91-1.35c0.37-0.28,0.74-0.56,1.1-0.84c0.22-0.17,0.44-0.35,0.58-0.6c0.13-0.24,0.17-0.53,0.21-0.8
					C745.38,485.96,745.04,483.02,744.63,479.91z"/>
			</g>
			<g>
				<path class="st21" d="M839.32,331.09c2.22-1.06,4.52-2.22,5.93-4.24c0.94-1.36,1.39-2.99,1.82-4.59
					c3.1-11.46,6.2-22.93,9.29-34.39c-3.08-3.33-3.18-10.63,2.81-6.61c0.53,0.36,1.11,0.81,1.74,0.68c0.47-0.1,0.8-0.5,1.1-0.88
					c1.21-1.56,2.43-3.12,3.64-4.68c0.42-0.54,0.87-1.1,1.52-1.34c0.49-0.18,1.03-0.14,1.54-0.07c3.95,0.48,7.74,2.15,10.76,4.74
					c-2.13,3.11-4.61,5.97-7.39,8.51c-1.04,0.95-2.14,1.87-3.01,2.98c-3.62,4.64-2.87,13.64-3.5,19.24
					c-0.86,7.65-1.72,15.29-2.58,22.94c-0.13,1.12-0.26,2.26-0.81,3.24c-0.66,1.19-1.85,1.98-2.99,2.72
					c-19.4,12.51-40.13,22.94-61.72,31.08c-1.84-5.14-4.92-12.22-4.77-17.74c0.14-5.22,7.76-5.65,12.03-7.18
					C816.5,341.27,828.05,336.46,839.32,331.09z"/>
			</g>
			<g>
				<path class="st21" d="M758.4,353.78c-8.04,2.65-12.09,7.31-12.33,18.29c-0.29,13.3-0.57,26.68,1.46,39.83
					c1.14,7.39,3.01,14.66,4.09,22.06c2.21,15.05,1.1,30.49-2.61,45.21c-1.25,4.96-6.34,13.12-2.56,17.47
					c3.61,4.17,10.54,1.53,15.13,1.3c15.17-0.73,30.35-1.47,45.52-2.2c9.29-0.45,28.42-0.93,26.03-15.28
					c-1.11-6.64-7.55-13.6-10-20.02c-2.72-7.1-4.54-14.76-4.18-22.4c0.53-11.21-1.35-22.14-2.24-33.46
					c-1.22-15.56-1.75-31.66-8.31-46.1c-5.52-12.14-33.01-8.36-43.55-6.31C762.47,352.63,760.32,353.15,758.4,353.78z"/>
			</g>
			<g>
				<g>
					<path class="st21" d="M836.98,721.82c2.92,0.39,5.68-0.46,8.55-0.58c0.55-10.07,0.11-19.78-1.38-29.86
						c-4.76,4.62-8.3,1.51-8.77,10.75C835.22,705.12,837.86,717.31,836.98,721.82z"/>
				</g>
				<g>
					<path class="st3" d="M846.51,716.28c3.42-0.97,3.64,7.06,3.53,8.94c-0.06,1.13-0.27,2.27-0.06,3.38
						c0.23,1.22,0.96,2.28,1.66,3.31c1.48,2.14,2.96,4.29,4.44,6.43c0.67,0.96,1.34,1.95,1.66,3.08c0.78,2.79-1.03,5.92-3.71,7.05
						c-9.27,3.92-16.72-7.6-18.17-14.97c-0.22-1.13-0.36-2.27-0.5-3.42c-0.29-2.36-1.71-7.57-0.63-9.79
						c1.26-2.59,4.41-0.44,6.62-1.3C843.4,718.19,845.13,716.68,846.51,716.28z"/>
				</g>
			</g>
			<g>
				<g>
					<path class="st21" d="M775.64,722.62c-2.82,0.87-5.68,0.49-8.53,0.84c-2.21-9.84-3.39-19.49-3.59-29.68
						c5.46,3.76,8.43,0.11,10.43,9.15C774.6,705.86,774.02,718.32,775.64,722.62z"/>
				</g>
				<g>
					<path class="st3" d="M764.43,720.36c-0.38,5.45-5.07,11.03-7.77,15.78c-0.32,0.56-0.64,1.14-0.7,1.78
						c-0.08,0.95,0.44,1.84,0.95,2.65c0.7,1.12,1.47,2.31,2.67,2.87c1.18,0.56,2.55,0.41,3.84,0.22c2.15-0.32,4.29-0.74,6.41-1.26
						c0.53-0.13,1.07-0.27,1.51-0.58c0.53-0.37,0.87-0.94,1.19-1.5c1.66-2.85,3.05-4.86,3.2-8.15c0.15-3.4-0.04-6.94,0.81-10.26
						c0.42-1.61,0.97-3.67-0.37-4.66c-1.03-0.77-3.08,0.05-4.26,0.17c-2.1,0.2-4.01-0.06-5.99,0.9c-0.4,0.2-0.8,0.44-1.07,0.8
						C764.56,719.48,764.46,719.91,764.43,720.36z"/>
				</g>
			</g>
			<g>
				<g>
					<g>
						<g>
							<g>
								<path class="st21" d="M770.17,352.21c0.2,0.35,0.45,0.67,0.79,0.98c1.34,1.21,3.15,1.85,4.92,2.03
									c2.34,0.23,4.69-0.26,6.97-0.8c3.09-0.73,2.9-2.55,3.23-5.4c0.18-1.56,0.27-3.12,0.32-4.69c0.03-0.86-0.44-3.91,0.08-4.53
									c0.35-0.42,1.86-0.35,2.51-0.72c1.02-0.59,1.85-1.64,2.44-2.64c0.95-1.62,1.42-3.46,1.89-5.28
									c0.82-3.16,1.63-6.32,2.45-9.48c0.83-3.23,1.67-6.48,1.84-9.81c0.25-5.02-0.86-12.04-4.79-15.53
									c-3.59-3.19-8.66-4.14-13.29-4.53c-6.13-0.52-12.4,0.87-17.53,4.34c-2.07,1.4-4.01,3.18-5.17,5.57
									c-1.78,3.68-1.44,8.16-1.05,12.34c0.36,3.86,0.72,7.73,1.08,11.59c0.41,4.44,1.19,9.55,4.63,11.82
									c1.83,1.21,4.15,1.38,5.74,2.96c1.99,1.98,2,5.07,2.19,7.68C769.54,349.59,769.49,351.01,770.17,352.21z"/>
							</g>
						</g>
						<g>
							<path class="st3" d="M787.32,301.33c0.23,0.35,0.42,0.72,0.57,1.11c0.8,2.02,0.42,4.36,1.2,6.39
								c1.24,3.22,5.13,5.01,5.85,8.38c0.59,2.76-1.19,5.48-1.23,8.3c-0.04,3.08,2.05,5.9,1.88,8.95c-0.15,2.65-1.66,6.42-3.14,8.6
								c0.46-0.67,4.88-0.63,5.99-1.38c1.71-1.15,1.88-1.83,2.32-3.68c0.44-1.84-0.04-3.6,0.69-5.5c0.89-2.32,2.85-4.08,3.46-6.54
								c0.83-3.36-1.09-6.78-1.1-10.24c-0.02-5.23,4.29-10.35,2.43-15.25c-1.09-2.87-4-4.61-5.7-7.17
								c-1.29-1.94-1.84-4.27-2.77-6.41s-2.47-4.25-4.73-4.81c-1.26-0.31-2.59-0.1-3.87-0.29c-2.22-0.31-4.11-1.75-6.26-2.38
								c-3.08-0.89-8.29,2.4-9.95,5.05c-1.65,2.63-0.67,4.76,1.23,6.93C777.33,295.02,784.66,297.17,787.32,301.33z"/>
						</g>
					</g>
					<g>
						<path class="st3" d="M745.82,287.66c-1.76,1.41-3.96,2.47-5.55,4.1c-3.1,3.18-3.51,8.06-3.43,12.5
							c0.07,3.95-1.51,7.54-0.9,11.64c0.41,2.75,1.7,5.5,4.02,7.03c2.89,1.91,7.3,2.06,8.69,5.23c1.51,3.45-1.93,8.02,0.4,10.97
							c1.29,1.63,3.68,1.77,5.47,2.83c2,1.18,3.09,3.38,4.36,5.32c1.27,1.94,3.14,3.85,5.45,3.8c-0.06-3.52-0.07-6.32-1.72-9.47
							c-0.96-1.84-3.68-5.18-1.79-7.3c1.18-1.74,4.1-2.42,4.09-4.52c-0.01-0.99-0.73-1.8-1.31-2.6c-2.24-3.1-2.63-7.33-1.36-10.93
							s4.08-6.56,7.44-8.37c3.94-2.12,3.25-3.08,4.25-6.98c0.92-3.59,2.9-4.51,6.04-5.94c2.82-1.28,3.71-2.05,4.65-4.78
							c0.69-2,1.54-4.39,0.32-6.53c-0.97-1.7-2.63-2.88-4.23-4c-3.36-2.34-7.12-4.79-11.18-4.32c-2.26,0.26-4.34,1.42-6.6,1.64
							c-1.51,0.15-3.03-0.12-4.54-0.1c-2.58,0.03-5.27,0.93-7.29,2.55c-2.04,1.64-1.91,3.26-2.99,5.51
							C747.58,286.05,746.76,286.9,745.82,287.66z"/>
					</g>
					<g>
						<path class="st3" d="M754.32,272.8c0.29-2.47-0.1-5.65-2.48-6.38c-1.3-0.4-2.72,0.16-4.06-0.05
							c-2.87-0.46-3.98-3.85-5.58-6.28c-0.24-0.36-0.52-0.73-0.92-0.89c-0.58-0.23-1.22,0.02-1.83,0.13
							c-2.81,0.47-5.08-2.23-7.79-3.13c-3.35-1.11-7.41,1.13-8.26,4.56c-0.35,1.41-0.21,2.9-0.54,4.31
							c-1.31,5.73-9.49,8.49-9.45,14.37c0.03,3.97,4.07,7.6,2.72,11.34c-0.86,2.39-3.81,4.12-3.36,6.62
							c0.29,1.61,2.06,2.63,3.69,2.54c1.63-0.09,3.09-1.05,4.27-2.18c1.88-1.79,3.25-4.04,5.03-5.92c1.78-1.88,4.2-3.45,6.78-3.24
							c2.5,0.2,4.84,2.04,7.3,1.52c1.96-0.42,3.36-2.25,5.28-2.83c1.8-0.54,3.72,0.09,5.6,0.12c1.88,0.03,4.14-1.04,4.11-2.92
							c-0.01-0.46-0.16-0.92-0.03-1.36c0.35-1.23,2.42-1.25,2.76-2.48c-1.04-1.47-2.4-0.87-3.19-2.81
							C753.77,276.34,754.14,274.35,754.32,272.8z"/>
					</g>
				</g>
			</g>
			<g>
				<path class="st11" d="M741.37,430.87c0.03,2.25-0.42,11.95,3.2,12.19c17.97,1.15,35.63-5.9,53.14-8.75
					c4.56-0.74,9.16-1.26,13.78-1.33c4.16-0.06,7.99,1.85,9.11-2.55c1.11-4.37,0.33-10.18,0.36-14.69
					c0.05-9.7-1.13-18.54,1.11-28.03c2.26-9.56,5.89-18.81,10.76-27.35c0.49-0.86,1-1.74,1.08-2.72c0.13-1.57-0.83-3.28-1.24-4.77
					c-0.64-2.31-0.99-4.72-1.56-7.05c-1.08-4.48-2.34-8.93-3.76-13.32c-2.75,2.19-5.83,3.96-9.11,5.24
					c-5.09,2-10.57,2.81-15.66,4.79c-2.62,1.02-4.61,2.79-7.05,4.01c-2.31,1.15-4.83,1.1-6.18,3.81c-1.08,2.18-0.21,6.84-0.23,9.26
					c-0.03,3.17-0.06,6.34-0.6,9.48c-0.7,4-2.61,8.74-6.65,9.14c-2.6,0.26-4.97-1.52-6.66-3.5c-4.63-5.43-3.9-12.45-7.27-18.24
					c-0.67-1.15-3.4-5.42-4.37-5.81c-2.12-0.88-8.56,3.21-10.7,4.13c-5.57,2.4-10.69,4.31-15.74,7.93
					c-4.97,3.56-9.48,7.73-13.68,12.16c-3.67,3.88-7.21,7.95-10.5,12.16c-3.61,4.62,0.46,6.88,3.66,10.49
					c2.21,2.5,4.53,4.89,6.97,7.17c2,1.87,4.59,5,7.11,6.12c3.38,1.49,7.03-2.22,9.25-4.36c-0.95,0.91,1.4,8.88,1.58,10.6
					C742.02,421.56,741.3,426.34,741.37,430.87z"/>
			</g>
		</g>
		<g>
			<g>
				<path class="st3" d="M850.08,699.89c-0.26-7.64-0.64-15.29-1.04-22.95c-0.69-13.26-1.33-26.29-2.68-39.47
					c-4.17-40.6-5.85-81.62-8.74-122.34c0-12.05-0.15-24.7-2.69-36.53c-0.15-0.66-0.31-1.34-0.66-1.92
					c-1.17-1.91-3.84-2.06-6.08-1.96c-8.76,0.37-17.93,2.27-26.62,2.05c-9.76-0.24-20.09-1.08-30.18-0.51
					c-6.93,0.39-13.93-2.23-21-0.91c-3.45,0.64-3.35,3.53-3.93,6.9c-0.63,3.65-0.84,7.36-1.01,11.05
					c-0.31,6.63-0.5,13.26-0.56,19.89c-0.15,16.42,2.41,33,3.22,49.41c0.85,17.21,1.59,34.42,2.24,51.64
					c0.82,21.79,3.95,43.47,6.64,65.01c0.95,7.61,1.92,15.22,3.02,22.8c0.34,2.37,0.41,6.22,1.4,8.29
					c1.95,4.06,7.13,3.61,10.36,3.12c2.82-0.43,5.61-1.13,8.34-2.09c-1.04-30.06,2.11-60.6,1.97-90.87
					c-0.09-20.12,2.16-40.13,4.21-60.12c0.38-3.72,0.67-7.64,1.48-11.3c0.77-3.48,2.18-6.79,2.76-10.37
					c0.64-3.9,3.75-4.15,5.16-0.76c1.8,4.34,2.46,9.59,3.63,14.14c6.07,23.46,13.07,46.57,17.04,70.75
					c4.91,29.87,12.86,59.5,16.91,89.3c2.66,0.53,5.32,0.8,7.96,0.79c3.03-0.01,7.84-0.36,8.94-4.66
					C850.74,706.08,850.16,702.27,850.08,699.89z"/>
			</g>
			<g>
				<path class="st22" d="M834.57,478.52c0-1.69-3.4-4.61-4.15-6.24c-0.84-1.83-1.57-3.67-2.54-5.48c-0.05-0.09-0.1-0.19-0.19-0.25
					c-0.32-0.23-0.71,0.15-1,0.41c-1.03,0.92-3.76,0.31-5.04,0.32c-2.21,0.02-4.41,0.04-6.62,0.06c-4.27,0.04-8.55,0.08-12.82,0.12
					c-17.15,0.16-34.13,1.11-51.26,0.05c-0.68,1.71-3.11,7.58-2.07,9.31c0.38,0.64,1.03,0.51,1.79,0.59c1.76,0.17,3.54,0.2,5.3,0.28
					c5.72,0.24,11.45,0.39,17.18,0.53c14.15,0.35,28.3,0.58,42.45,0.66C816.68,478.89,834.57,479.14,834.57,478.52z"/>
			</g>
		</g>
	</g>
	<g>
		<g>
			<g>
				<path class="st9" d="M618.73,662.8c7.24,5.05,56.74,70.68,56.74,70.68l-28.37,21.79l-117.38-24.45v-21.79l45-3.51
					c0,0-32.79-4.79-41.71-26.56C524.1,657.21,618.73,662.8,618.73,662.8z"/>
			</g>
			<g>
				<path class="st3" d="M515.54,718.3c-2.47,6.56-5,15.27-3,22.58c2.21,8.1,14.85,13.75,18.28,3.59c0.66-1.96,0.49-4.34-0.97-5.81
					c-3.11-3.12-5.71-6.54,0.16-8.62c2.18-0.77,4.57-0.67,6.81-1.22c0.78-0.19,1.57-0.48,2.1-1.09c0.66-0.77,0.74-1.86,0.78-2.87
					c0.12-3.85-0.08-7.71-0.58-11.52c-0.16-1.17-11.22-2.13-12.37-2.01C522.57,711.78,517.13,714.06,515.54,718.3z"/>
			</g>
			<g>
				<polygon class="st9" points="638.95,701.95 682.21,726.51 693.61,717.23 693.61,706.43 638.95,662.8 605.98,698.53 				"/>
			</g>
		</g>
		<g>
			<g>
				<g>
					<path class="st11" d="M581.51,521.79c1.25-0.77,2.55-1.45,3.92-1.99c22.78-9,39.47,1.16,46.81,23.17
						c16.46,49.36,18.86,94.52,7.63,144.42c-25.63,1.5-56.13,2.62-81.71,0.52c-9.09-0.75-19.04-2.15-25.14-8.93
						c-2.72-3.03-4.37-6.85-5.73-10.68c-8.68-24.44-6.89-51.9,2.17-76.2c9.06-24.3,25-45.62,43.77-63.53
						C575.8,526.1,578.49,523.66,581.51,521.79z"/>
				</g>
				<g>
					<g>
						<g>
							<path class="st5" d="M635.23,472.21c-11.85,3.06-24.39-4.85-35.85-0.25c-7.45,2.99-12.57,10.95-13.86,19.12
								c-0.6,3.81-0.46,7.81,1.09,11.2c1.01,2.2,2.57,4.07,4.32,5.66c2.35,2.13,5.08,3.76,8.03,4.85c0.24,0.09-3.74,7.1-4.13,7.71
								c1.82,1.15,0.98,4.84,2.66,6.72c1.74,1.94,4.81,2.4,7.39,1.75c2.58-0.65,4.77-2.2,6.84-3.77c1.88-1.42,0.9-11.03,2.83-11.49
								c1.65-0.39,3.27-0.93,4.84-1.65c9.46-4.35,16.41-14.5,17.22-25.12C637,481.97,636.13,477.05,635.23,472.21z"/>
						</g>
					</g>
					<g>
						<path class="st3" d="M606.87,472.24c0.45-0.02,0.91-0.03,1.36-0.04c6.53-0.07,13,1.36,18.88,4.03
							c2.17,0.98,4.3,2.17,5.88,3.94c2.34,2.62,3.25,6.32,3.13,9.9c-0.12,3.58-1.16,7.09-2.33,10.5c1.49,0.07,2.9-0.74,4.15-1.6
							c3.69-2.51,7.7-5.8,9.96-9.73c4.11-7.14,4.29-12.23,11.29-17.35c5.81-4.24,13.19-1.7,17.86-8.9
							c3.82-5.89,1.57-15.44-5.19-17.34c-3.02-0.85-6.46-0.04-8.78,2.08c-2.5,2.28-5.21,6.26-8.14,4.57
							c-1.17-0.67-1.68-2.06-2.28-3.26c-4.99-10.01-15.67-8.27-24.2-4.54c-4.81,2.1-9.48,4.94-14.66,5.48
							c-4.15,0.44-8.27-0.66-12.44-0.53c-6.94,0.2-13.72,3.95-18.03,9.54c-4.83,6.27-7.31,15.3-4.06,22.46
							c1.63,3.59,2.67,7.37,3.74,11.16c0.37,1.32,3.28,6.67,4.4,2.38c0.87-3.33,0.66-6.84,1.55-10.17
							C591.15,476.72,599.09,472.63,606.87,472.24z"/>
					</g>
				</g>
			</g>
		</g>
		<g>
			<g>
				<g>
					<g>
						<g>
							<path class="st10" d="M728.26,548.15c-17.36-1.52-39.25,7.8-44.54,22.83c-5.14-15.08-31.73-24.48-49.1-23.12
								c-45.84,3.58-61.62,55.42-42.36,90.41c10.36,18.84,25.3,35.33,41.62,50.16c13.67,12.41,48.94,38.78,49.05,38.69
								c0.11,0.09,35.65-25.94,49.44-38.23c16.47-14.67,31.58-31.03,42.13-49.77C794.1,604.3,774.06,552.15,728.26,548.15z"/>
						</g>
					</g>
					<g class="st23">
						<g>
							<path class="st24" d="M764.58,642.71c-11.49,13.96-24.78,27.06-39.2,38.29c-13.94,10.86-30.25,20.3-48.17,23.4
								c-8.61,1.49-17.03,1.24-24.99-0.66c14.56,11.53,30.38,23.31,30.46,23.26c0.11,0.09,35.65-25.94,49.44-38.23
								c16.47-14.67,31.58-31.03,42.13-49.77c3.41-6.06,5.62-12.65,6.71-19.42C776.16,627.67,770.6,635.39,764.58,642.71z"/>
						</g>
					</g>
					<g>
						<g>
							<path class="st14" d="M764.88,628.73c-12,0.25-24,0.51-36,0.76c-4.26-16.02-8.52-32.04-12.78-48.06
								c-0.62-2.32-4-2.16-4.73-0.02c-9.43,27.81-18.86,55.62-28.29,83.43c-0.55,1.61-1.09,3.22-1.64,4.83
								c-6.22-18.36-12.45-36.73-18.67-55.09c-1-2.95-2-5.89-2.99-8.84c-0.6-1.78-3.48-2.49-4.48-0.58
								c-4.64,8.89-9.27,17.77-13.91,26.66c-13.43-0.06-26.86-0.12-40.28-0.19c-3.15-0.01-3.18,4.67-0.02,4.68
								c13.93,0.06,27.87,0.13,41.8,0.19c0.82,0,1.74-0.43,2.12-1.15c3.97-7.62,7.95-15.23,11.92-22.85
								c6.39,18.84,12.77,37.68,19.16,56.52c1,2.95,2,5.89,2.99,8.84c0.75,2.21,3.97,2.26,4.73,0.02
								c9.43-27.81,18.86-55.62,28.29-83.43c0.45-1.33,0.9-2.66,1.35-3.99c3.72,14,7.45,28.01,11.17,42.01
								c0.26,0.97,1.29,1.75,2.35,1.73c12.63-0.27,25.26-0.53,37.88-0.8C768,633.35,768.04,628.66,764.88,628.73z"/>
						</g>
					</g>
				</g>
			</g>
		</g>
		<g>
			<g>
				<path class="st5" d="M579.1,630.31c2.82,7.57,6.92,14.27,13.23,18.85c5.24,3.8,10.47,7.6,15.71,11.4
					c1.43,1.04,2.9,2.12,3.84,3.62c1.32,2.12,1.39,4.76,1.75,7.23c0.78,5.38,3.5,10.88,8.41,13.21c4.91,2.34,12,0.01,13.18-5.29
					c-2.26-3.03-4.4-6.23-6.82-9.13c-1.31-1.57-4.2-5.35,0.48-4.1c0.72,0.19,1.46,0.45,2.2,0.35c1.15-0.16,2.03-1.17,2.4-2.27
					c0.35-1.07,0.4-2.27,0.17-3.36c-10.65-0.2-22.39-10.53-28.17-18.78c-15.45-22.05-9.25-50.02-14.43-74.78
					c-1.04-4.99-2.98-10.08-6.92-13.32c-3.94-3.25-10.28-3.97-14-0.48c-3.99,3.74-3.41,10.12-2.53,15.52
					c1.27,7.75,2.54,15.5,3.82,23.25C573.32,603.72,574.56,618.14,579.1,630.31z"/>
			</g>
			<g>
				<path class="st11" d="M561.95,554.77c-1.32,10.48-1.46,21.11-0.4,31.62c12.63-1.89,25.36-3.04,38.12-3.45
					c-1.17-11.1-3.11-22.11-5.82-32.94c-1.98-7.93-8.89-12.14-17.1-11.81C567.7,538.56,562.96,546.82,561.95,554.77z"/>
			</g>
		</g>
		<g>
			<path class="st5" d="M657.19,551.53c0.66-0.07,1.41-0.12,1.92,0.31c0.51,0.43,0.6,1.17,0.61,1.83c0.01,2.62-0.81,5.23-2.31,7.38
				c-0.35,0.5-0.76,1.06-0.61,1.65c0.15,0.62,0.82,0.93,1.42,1.16c1.55,0.59,3.11,1.19,4.66,1.78c0.31,0.12,0.65,0.24,0.98,0.18
				c0.42-0.08,0.74-0.43,1.01-0.76c2.16-2.58,4.38-5.26,5.29-8.51c0.91-3.24,0.13-7.21-2.71-9.02c-4.62-2.96-19.14-4.88-19.51,3.45
				C650.67,552.44,654.22,551.82,657.19,551.53z"/>
		</g>
	</g>
</g>
</svg>
